<?xml version="1.0" standalone="no"?>
<!DOCTYPE svg PUBLIC "-//W3C//DTD SVG 20010904//EN"
 "http://www.w3.org/TR/2001/REC-SVG-20010904/DTD/svg10.dtd">
<svg version="1.0" xmlns="http://www.w3.org/2000/svg"
 width="1997.000000pt" height="2047.000000pt" viewBox="0 0 1997.000000 2047.000000"
 preserveAspectRatio="xMidYMid meet">

<g transform="translate(0.000000,2047.000000) scale(0.100000,-0.100000)"
fill="#000000" stroke="none">
<path d="M12055 20459 c-225 -3 -475 -7 -554 -8 l-144 -1 8 -513 7 -514 -323
-6 c-178 -4 -382 -7 -453 -7 l-129 0 8 -530 c4 -293 3 -530 -1 -530 -5 0 -207
-7 -448 -15 -242 -8 -441 -14 -443 -12 -2 3 -33 978 -33 1060 0 16 -27 17
-434 17 l-434 0 -6 223 c-3 122 -8 348 -12 501 -5 217 -9 282 -20 293 -11 12
-289 11 -1816 -2 -991 -9 -1803 -17 -1805 -19 -3 -3 -369 -3832 -468 -4901
-26 -269 -48 -500 -51 -512 -2 -13 -11 -23 -20 -23 -22 0 -81 -31 -244 -129
-80 -48 -212 -127 -295 -176 -82 -49 -215 -127 -295 -175 -80 -47 -224 -133
-320 -190 -96 -57 -229 -136 -295 -175 -66 -39 -187 -111 -270 -160 -82 -49
-158 -97 -168 -108 -23 -26 -22 -87 8 -342 13 -115 45 -387 70 -604 25 -216
47 -403 50 -415 4 -19 -79 -72 -722 -466 -1005 -615 -1921 -1177 -1966 -1206
l-37 -24 0 -78 c0 -52 113 -789 355 -2316 195 -1232 352 -2243 349 -2247 -2
-4 71 -65 163 -135 93 -70 196 -150 231 -177 l62 -49 -170 -124 c-93 -68 -174
-124 -180 -124 -5 0 -10 -2 -10 -4 0 -5 232 -1442 265 -1641 18 -112 29 -153
42 -163 10 -7 1052 -846 2316 -1865 1264 -1018 2305 -1856 2313 -1862 9 -7 20
-6 34 3 16 9 2506 1900 3002 2280 82 62 100 72 111 60 23 -23 204 -162 432
-332 121 -90 261 -195 310 -233 50 -39 170 -129 268 -201 159 -117 183 -132
218 -132 22 0 50 5 62 12 12 6 181 135 376 287 194 152 365 285 380 296 14 11
108 84 209 162 100 79 185 143 188 143 2 0 722 -529 1599 -1175 877 -646 1602
-1175 1610 -1175 8 0 536 437 1173 971 636 534 1167 980 1180 989 22 18 24 38
122 1206 88 1049 101 1190 117 1205 27 25 2286 1850 2301 1858 8 4 16 30 19
57 2 27 121 1035 264 2239 206 1743 259 2210 257 2289 l-3 98 -1350 799 c-742
440 -1352 802 -1356 807 -3 4 -3 41 2 82 4 41 15 167 24 280 9 113 20 261 26
330 5 69 17 206 25 305 27 330 29 421 11 448 -18 28 12 10 -797 477 -355 205
-685 397 -735 426 -169 99 -253 144 -269 144 -9 0 -16 1 -16 3 -1 1 -117 1228
-258 2727 l-258 2725 -1274 1 c-701 0 -1459 -3 -1685 -7z m2489 -671 c6 -57
472 -5478 480 -5588 3 -36 -15 -468 -40 -960 -24 -492 -46 -949 -50 -1015 -32
-672 -53 -1077 -56 -1080 -7 -6 -2857 -27 -2873 -21 -9 3 -14 9 -12 13 3 5 10
699 17 1543 l12 1535 -36 1050 c-19 578 -38 1101 -42 1164 l-6 114 -477 -7
-476 -7 0 -122 c0 -67 6 -655 13 -1307 6 -652 12 -1535 12 -1964 l0 -779 -92
-3 c-51 -1 -466 -6 -923 -9 -456 -3 -838 -7 -848 -8 -22 -2 -16 -152 -68 1593
-42 1384 -45 1715 -23 2395 l6 190 -478 -3 c-263 -2 -480 -5 -482 -7 -4 -4
-23 -479 -36 -930 -4 -104 -8 -235 -11 -290 -3 -55 -7 -179 -10 -275 -3 -96
-10 -296 -16 -445 -17 -428 -13 -598 54 -2080 35 -770 63 -1401 63 -1402 -1
-1 -557 -6 -1236 -12 -679 -6 -1330 -13 -1445 -15 l-210 -4 -124 1472 c-67
809 -124 1487 -126 1507 -3 28 162 1955 320 3754 3 33 41 483 85 1000 44 517
83 950 85 961 l5 22 1192 7 c656 5 1267 9 1358 9 159 1 165 0 163 -19 -3 -34
-22 -548 -29 -785 -3 -124 -9 -229 -12 -234 -3 -5 190 -7 462 -4 l468 5 -6
-166 c-3 -91 -9 -337 -12 -545 l-6 -379 938 7 c517 4 941 9 942 11 2 2 0 246
-6 542 -5 296 -9 539 -8 540 0 0 209 4 463 8 254 4 461 11 459 14 -2 3 -7 107
-10 231 -8 274 -26 779 -29 794 -1 8 93 12 313 14 575 5 2083 19 2241 20 l157
2 6 -52z m1401 -5641 c204 -128 369 -237 369 -242 -1 -7 -767 -515 -777 -515
-3 0 -1 79 7 210 11 189 16 264 21 360 12 205 14 332 6 375 -5 25 -6 45 -2 45
3 0 173 -105 376 -233z m-11505 57 c-4 -41 10 -235 36 -517 22 -249 40 -453
39 -454 -2 -4 -797 545 -813 561 -10 10 57 56 359 244 205 128 375 232 378
232 4 0 4 -30 1 -66z m12363 -1216 c-2 -51 -6 -116 -9 -145 l-5 -51 -95 56
c-52 31 -94 59 -93 62 1 6 192 169 200 169 3 1 4 -41 2 -91z m-13528 -158 c25
-26 28 -33 15 -40 -8 -5 -34 -21 -57 -35 l-43 -26 0 86 0 86 28 -19 c15 -11
41 -34 57 -52z m14578 -1449 c1170 -701 1407 -847 1407 -865 -1 -34 -438
-3967 -441 -3970 -2 -2 -220 -175 -484 -385 -264 -210 -487 -388 -495 -395 -8
-7 -317 -254 -687 -549 l-671 -536 -6 -53 c-4 -29 -27 -313 -51 -631 -25 -317
-65 -835 -90 -1150 -25 -316 -45 -576 -45 -579 0 -3 -204 -174 -452 -379 -249
-205 -469 -386 -489 -403 -20 -17 -44 -38 -55 -46 -10 -8 -55 -44 -99 -80 -44
-36 -86 -69 -93 -75 -11 -9 -38 -31 -92 -79 -8 -7 -121 -100 -250 -206 -129
-107 -236 -198 -238 -202 -2 -4 -8 -8 -14 -8 -7 0 -8 14 -4 38 5 31 56 965 70
1292 4 94 58 1135 71 1370 28 524 185 3619 185 3661 0 36 -5 59 -12 62 -11 4
-1185 777 -2068 1362 -151 100 -389 257 -527 348 -139 91 -253 171 -253 176 0
6 10 16 22 22 26 14 238 163 1123 790 369 261 693 491 720 510 l50 34 739 7
c406 4 740 8 742 10 3 4 43 640 50 803 11 275 12 280 29 290 39 23 922 649
940 666 16 16 22 17 40 6 11 -7 653 -393 1428 -856z m-14196 772 c72 -49 218
-149 318 -218 33 -23 119 -81 190 -130 72 -49 213 -147 315 -217 102 -70 189
-129 194 -131 5 -2 10 -16 11 -32 2 -17 6 -77 10 -135 4 -58 9 -107 10 -110 2
-3 6 -48 10 -100 3 -52 8 -106 10 -120 3 -14 7 -56 10 -95 3 -38 12 -146 21
-240 17 -179 20 -209 22 -238 2 -18 28 -18 720 -12 509 5 724 4 742 -4 18 -8
1339 -913 1770 -1213 21 -15 23 -19 10 -27 -22 -14 -2854 -1933 -2859 -1937
-4 -4 20 -293 44 -539 11 -104 15 -152 20 -225 4 -41 17 -196 31 -344 14 -148
23 -270 21 -272 -2 -2 -150 105 -328 239 -178 133 -591 443 -918 687 -326 245
-614 460 -639 478 -157 114 -592 439 -614 460 -15 14 -31 23 -35 19 -3 -4 -1
-37 5 -74 13 -73 68 -515 75 -600 5 -61 4 -62 -51 -97 l-42 -27 62 -47 63 -47
25 -213 25 -214 1230 -935 c676 -515 1238 -944 1249 -953 12 -12 20 -36 23
-67 23 -288 325 -3594 329 -3611 4 -12 2 -22 -2 -22 -5 0 -635 501 -1400 1113
-765 611 -1678 1342 -2030 1623 l-639 510 -33 230 c-18 126 -57 391 -87 589
-29 198 -52 361 -50 363 1 2 362 -280 801 -626 720 -566 800 -632 807 -663 4
-19 13 -78 20 -132 l12 -97 77 56 77 55 255 -200 c140 -111 257 -201 261 -201
3 0 4 8 1 18 -3 9 -10 58 -16 107 -45 415 -129 1098 -136 1104 -5 5 -534 414
-1176 911 -920 711 -1168 908 -1172 929 -3 14 -89 591 -191 1281 -102 690
-199 1343 -215 1450 -129 862 -181 1235 -174 1237 5 2 648 397 1429 878 781
481 1423 875 1427 875 4 0 37 -21 75 -47z m7834 -465 c0 -2 6 -226 13 -498 12
-454 12 -496 -3 -511 -32 -32 -1520 -1109 -1531 -1109 -7 0 -309 208 -671 462
l-659 461 0 86 c0 200 23 1077 29 1083 9 10 2819 35 2822 26z m-211 -5645 c0
-1726 -3 -3147 -6 -3158 -4 -15 -595 -501 -739 -608 l-25 -19 1 3189 0 3188
372 272 c205 149 378 271 385 272 9 1 12 -633 12 -3136z m-2190 2834 c184
-127 336 -231 337 -232 4 -2 14 -268 88 -2330 36 -990 83 -2303 105 -2919 23
-615 39 -1120 37 -1123 -6 -6 -698 518 -703 532 -2 8 -111 2942 -140 3782 l-6
182 -67 45 c-36 25 -97 68 -136 95 -126 90 -169 121 -222 157 -29 20 -51 39
-48 43 2 4 30 26 62 47 58 40 115 80 221 155 31 22 81 57 110 76 35 24 52 43
52 57 0 12 -14 376 -30 810 -16 435 -27 807 -24 828 4 24 11 35 18 31 6 -4
162 -110 346 -236z"/>
<path d="M17234 7713 c-33 -27 -171 -133 -307 -238 -136 -104 -247 -196 -247
-205 0 -8 -22 -301 -50 -650 -27 -349 -50 -641 -50 -648 0 -7 33 14 73 46 39
33 177 141 304 241 128 100 232 185 231 189 -2 9 8 141 33 417 27 301 26 289
34 390 3 50 15 182 25 295 11 112 18 206 16 207 -1 2 -29 -18 -62 -44z"/>
</g>
</svg>
