<?xml version="1.0" standalone="no"?>
<!DOCTYPE svg PUBLIC "-//W3C//DTD SVG 20010904//EN"
 "http://www.w3.org/TR/2001/REC-SVG-20010904/DTD/svg10.dtd">
<svg version="1.0" xmlns="http://www.w3.org/2000/svg"
 width="1024.000000pt" height="1024.000000pt" viewBox="0 0 1024.000000 1024.000000"
 preserveAspectRatio="xMidYMid meet">

<g transform="translate(0.000000,1024.000000) scale(0.100000,-0.100000)"
fill="#000000" stroke="none">
<path d="M2609 10223 c0 -10 -10 -610 -22 -1333 l-22 -1314 -607 -296 -608
-295 0 -301 0 -301 -580 -284 -580 -284 0 -185 c1 -102 7 -738 14 -1414 11
-1017 16 -1230 27 -1237 8 -5 96 -51 196 -102 101 -50 183 -94 183 -97 0 -3
-85 -48 -190 -100 -104 -52 -192 -101 -195 -108 -3 -8 -2 -277 2 -599 l6 -585
36 -23 c20 -12 606 -318 1304 -679 l1267 -656 658 336 c361 185 717 367 791
405 l134 68 343 -175 343 -175 324 165 c178 91 330 166 338 166 8 0 375 -185
816 -410 l803 -410 652 339 653 338 6 474 c3 261 7 623 8 805 l1 330 437 225
c241 123 531 272 647 331 115 59 211 110 214 113 5 5 30 2117 31 2600 l1 231
-590 289 -591 289 3 310 3 310 -555 271 -555 271 -2 150 c-2 82 -12 676 -23
1319 -11 644 -20 1187 -20 1208 l0 37 -930 0 -930 0 0 -225 0 -225 -230 0
-230 0 0 -225 0 -225 -230 0 -230 0 0 225 0 225 -235 0 -235 0 0 225 0 225
-925 0 c-874 0 -925 -1 -926 -17z m1621 -528 l0 -225 230 0 230 0 0 -225 0
-225 470 0 470 0 -7 225 -6 225 236 0 237 0 0 225 0 225 689 0 689 0 6 -122
c12 -254 36 -2323 36 -3040 l0 -748 -712 0 -711 0 6 814 c3 447 7 817 8 822 1
5 1 215 0 467 l-1 457 -235 0 -235 0 0 -227 c0 -126 0 -598 0 -1050 l0 -823
-470 0 -470 0 -1 818 c0 449 0 922 1 1050 l2 232 -236 0 -236 0 0 -457 c-1
-1077 0 -1309 7 -1695 l6 -408 -711 0 -712 0 0 848 c0 466 7 1263 15 1772 8
509 15 1007 15 1108 l0 182 695 0 695 0 0 -225z m-1660 -2715 c0 -215 -4 -360
-9 -360 -5 0 -172 82 -371 181 l-362 182 359 177 c197 98 364 179 371 179 9 1
12 -77 12 -359z m5506 156 l309 -153 -312 -157 c-172 -86 -315 -156 -318 -156
-3 0 -5 140 -5 310 0 171 4 310 8 310 5 0 148 -69 318 -154z m-6444 -577 l42
-21 -35 -19 c-51 -27 -59 -24 -59 21 0 22 2 40 5 40 3 0 25 -10 47 -21z m6998
-34 c0 -25 -2 -45 -5 -45 -2 0 -25 10 -50 22 l-46 22 43 23 c24 12 46 22 51
23 4 0 7 -20 7 -45z m-6410 -435 l360 -180 0 -110 0 -110 220 0 220 0 570
-285 c314 -157 570 -288 570 -291 0 -3 -299 -153 -665 -334 l-665 -329 0 -405
c0 -224 -3 -406 -6 -406 -4 0 -301 149 -660 331 l-654 330 0 -400 c0 -293 3
-402 12 -408 6 -4 302 -157 657 -338 l646 -330 7 -820 c4 -451 7 -996 5 -1210
l-2 -390 -1132 585 c-622 322 -1133 587 -1136 590 -2 3 -8 182 -12 397 -6 327
-5 393 7 393 15 0 -34 25 699 -353 317 -163 579 -297 583 -297 3 0 6 179 6
398 l0 398 -642 329 c-354 180 -648 332 -654 337 -11 8 -16 272 -30 1808 l-6
625 669 327 c367 180 669 327 671 327 1 1 164 -80 362 -179z m6826 -180 l666
-325 -6 -605 c-15 -1490 -19 -1809 -25 -1818 -6 -9 -156 -87 -988 -515 l-313
-161 -1 -430 c-1 -237 -5 -599 -8 -805 l-6 -375 -335 -173 c-184 -96 -404
-209 -488 -252 l-152 -78 7 2023 6 2024 -666 329 c-367 181 -667 332 -667 335
0 3 270 141 600 306 l600 300 235 0 235 0 0 118 0 117 313 157 c171 86 316
156 320 155 4 -1 307 -148 673 -327z m-3186 25 l0 -216 -377 -185 -378 -186
-338 169 c-186 92 -331 169 -322 171 13 3 15 34 15 233 l0 229 700 0 700 0 0
-215z m-990 -3018 l0 -2018 -182 93 -183 93 -6 860 c-3 473 -7 1061 -8 1307
l-1 448 -197 99 -198 99 198 98 197 99 0 506 c0 278 3 508 6 512 3 3 89 -35
190 -86 l184 -92 0 -2018z m867 821 c-4 -760 -7 -1665 -7 -2012 l0 -631 -189
-98 c-103 -53 -191 -97 -195 -97 -8 0 -8 1755 1 3032 l6 1005 181 91 c100 50
187 91 195 91 12 1 13 -193 8 -1381z"/>
<path d="M8553 4186 l-163 -81 0 -402 c0 -222 1 -403 3 -403 2 0 74 36 160 80
l156 81 6 42 c3 23 5 205 3 403 l-3 361 -162 -81z"/>
</g>
</svg>
