<?xml version="1.0" standalone="no"?>
<!DOCTYPE svg PUBLIC "-//W3C//DTD SVG 20010904//EN"
 "http://www.w3.org/TR/2001/REC-SVG-20010904/DTD/svg10.dtd">
<svg version="1.0" xmlns="http://www.w3.org/2000/svg"
 width="200.000000pt" height="200.000000pt" viewBox="0 0 200.000000 200.000000"
 preserveAspectRatio="xMidYMid meet">

<g transform="translate(0.000000,200.000000) scale(0.100000,-0.100000)"
fill="#000000" stroke="none">
<path d="M994 1344 c-38 -63 -79 -132 -92 -152 -12 -20 -31 -54 -42 -75 -12
-21 -49 -84 -83 -140 -34 -56 -69 -115 -77 -130 -36 -71 -142 -123 -222 -110
-59 9 -129 60 -155 113 -44 87 -21 216 52 286 55 53 100 64 262 64 l128 0 37
66 38 65 -208 -3 -208 -3 -68 -34 c-119 -61 -186 -165 -194 -302 -8 -132 55
-266 153 -328 124 -79 366 -62 452 31 19 20 415 715 429 753 5 12 -6 15 -64
15 l-70 0 -68 -116z"/>
<path d="M1383 1317 c-89 -21 -130 -59 -202 -188 -90 -161 -180 -321 -231
-409 -102 -179 -130 -230 -130 -235 0 -3 32 -5 72 -3 l71 3 193 325 c217 367
229 381 323 388 108 8 203 -56 230 -153 35 -130 -29 -250 -158 -293 -19 -7
-92 -12 -165 -12 l-131 0 -33 -60 c-17 -33 -32 -63 -32 -66 0 -3 91 -4 203 -2
199 3 203 3 260 31 71 35 146 109 178 174 47 95 32 255 -33 360 -29 48 -95
100 -153 122 -66 25 -195 34 -262 18z"/>
</g>
</svg>
