<?xml version="1.0" standalone="no"?>
<!DOCTYPE svg PUBLIC "-//W3C//DTD SVG 20010904//EN"
 "http://www.w3.org/TR/2001/REC-SVG-20010904/DTD/svg10.dtd">
<svg version="1.0" xmlns="http://www.w3.org/2000/svg"
 width="3840.000000pt" height="3840.000000pt" viewBox="0 0 3840.000000 3840.000000"
 preserveAspectRatio="xMidYMid meet">

<g transform="translate(0.000000,3840.000000) scale(0.100000,-0.100000)"
fill="#000000" stroke="none">
<path d="M19885 35859 c-200 -82 -315 -164 -520 -373 -88 -90 -125 -129 -275
-291 -40 -44 -103 -112 -139 -151 -36 -38 -93 -99 -126 -135 -33 -36 -112
-121 -176 -190 -99 -106 -211 -227 -560 -604 -31 -33 -120 -130 -199 -215 -79
-85 -168 -182 -199 -215 -31 -34 -110 -119 -177 -190 -66 -72 -181 -195 -254
-275 -73 -80 -163 -176 -200 -215 -36 -38 -93 -99 -125 -135 -32 -36 -95 -103
-139 -150 -45 -47 -126 -134 -181 -194 -55 -60 -107 -116 -116 -125 -9 -9 -42
-45 -74 -81 -32 -36 -90 -99 -130 -140 -39 -41 -96 -102 -125 -135 -29 -33
-104 -114 -165 -180 -62 -66 -175 -187 -251 -270 -76 -82 -146 -157 -154 -165
-8 -9 -60 -65 -115 -125 -55 -59 -107 -115 -116 -124 -8 -9 -44 -47 -79 -86
-35 -38 -97 -106 -138 -150 -42 -44 -98 -105 -127 -135 -28 -30 -111 -120
-185 -200 -73 -80 -210 -224 -304 -320 -94 -96 -198 -205 -231 -240 -87 -96
-335 -360 -442 -471 -51 -53 -106 -112 -123 -130 -16 -19 -59 -65 -96 -104
-399 -420 -601 -640 -671 -732 -85 -112 -193 -291 -193 -322 0 -7 -10 -33 -22
-59 -21 -43 -22 -62 -22 -222 0 -160 1 -179 22 -222 12 -26 22 -53 22 -60 0
-16 82 -179 115 -228 77 -113 189 -260 263 -344 26 -29 76 -88 112 -132 35
-43 74 -88 85 -100 21 -21 74 -82 176 -205 35 -42 132 -154 214 -249 83 -95
168 -194 190 -221 100 -119 199 -235 209 -244 6 -5 45 -50 86 -100 75 -90 96
-115 180 -210 25 -28 94 -109 154 -181 60 -71 114 -133 120 -139 7 -5 55 -62
108 -125 108 -128 215 -253 352 -410 51 -58 126 -146 167 -196 41 -49 84 -99
95 -110 10 -11 64 -74 119 -139 55 -65 109 -128 120 -140 11 -12 63 -73 116
-136 53 -63 110 -129 128 -148 17 -18 61 -70 98 -115 37 -44 85 -101 108 -126
59 -67 134 -155 205 -240 34 -41 83 -98 109 -125 100 -109 192 -228 189 -246
-2 -10 -118 -134 -258 -276 -391 -395 -1959 -1987 -2141 -2173 -114 -117 -442
-451 -929 -945 -179 -182 -455 -463 -615 -625 -159 -163 -553 -563 -875 -889
-322 -326 -588 -597 -591 -602 -3 -5 -165 -170 -360 -367 -748 -755 -1846
-1874 -1945 -1982 -68 -75 -149 -177 -185 -235 -46 -75 -49 -80 -60 -105 -6
-14 -17 -39 -26 -56 -21 -45 -44 -149 -50 -233 -11 -157 61 -374 189 -566 57
-85 227 -310 270 -356 13 -14 74 -88 137 -164 63 -77 127 -153 143 -170 15
-16 49 -58 75 -92 27 -34 107 -132 178 -218 72 -85 157 -189 190 -229 33 -41
117 -143 187 -228 71 -84 214 -259 319 -388 106 -129 197 -239 204 -245 11
-10 193 -229 295 -355 30 -38 114 -139 185 -225 72 -86 158 -191 193 -233 34
-42 78 -95 97 -118 68 -81 213 -256 404 -491 107 -131 201 -245 210 -253 9 -8
65 -76 125 -150 61 -74 118 -144 128 -155 9 -11 46 -55 80 -97 167 -205 284
-345 304 -366 12 -13 42 -49 65 -80 24 -31 48 -61 54 -67 6 -5 62 -73 125
-150 62 -77 118 -144 124 -150 6 -5 63 -73 125 -150 63 -77 120 -147 128 -155
7 -8 36 -44 64 -80 28 -36 58 -72 67 -81 16 -14 179 -212 327 -394 33 -41 119
-145 190 -231 72 -86 160 -193 197 -238 37 -44 118 -143 180 -218 62 -75 203
-246 312 -380 109 -134 204 -247 210 -253 14 -12 209 -248 284 -343 29 -37 73
-89 96 -117 24 -27 88 -104 141 -170 54 -66 104 -127 111 -135 63 -72 89 -104
112 -134 55 -71 246 -301 262 -316 9 -8 35 -37 56 -65 21 -27 109 -135 194
-238 85 -103 193 -234 239 -290 45 -56 100 -122 121 -147 38 -44 74 -88 269
-326 55 -66 113 -136 131 -155 17 -19 50 -59 72 -89 23 -30 47 -59 53 -65 6
-5 60 -71 119 -145 60 -74 116 -142 125 -150 9 -8 95 -112 190 -230 96 -118
187 -228 203 -245 40 -43 248 -297 316 -385 81 -106 396 -421 462 -461 30 -19
64 -40 75 -47 20 -12 28 -16 110 -52 71 -31 203 -44 302 -30 49 7 97 18 108
25 11 7 38 18 60 25 22 7 47 18 55 24 8 7 26 18 40 25 53 26 120 70 315 206
91 63 91 63 285 190 91 60 243 160 339 224 95 64 187 124 205 134 17 10 47 31
66 46 19 15 49 35 65 45 38 21 116 77 175 124 51 42 388 342 530 472 52 48
145 131 205 184 61 54 148 133 195 175 47 43 105 96 130 118 25 22 114 103
199 179 85 76 249 224 365 328 116 104 213 192 216 195 3 4 66 60 140 126 74
65 158 140 185 165 49 46 136 125 205 186 136 121 263 235 305 274 28 26 100
91 160 145 61 53 148 132 194 174 118 106 160 144 286 256 61 54 112 101 115
105 3 3 115 104 250 224 135 120 250 224 255 230 6 6 69 63 140 125 72 63 135
119 140 125 6 7 120 110 255 230 135 121 250 224 255 230 6 7 100 92 210 191
110 98 223 200 250 225 28 26 100 91 160 145 61 53 148 132 194 174 47 42 103
92 125 112 23 20 93 83 156 140 63 57 130 117 149 134 19 16 42 37 50 45 9 8
106 96 216 194 110 99 223 201 250 227 28 26 70 64 95 84 25 20 90 79 145 129
55 51 190 173 300 271 110 98 229 206 265 239 36 34 151 137 255 231 105 93
206 184 225 201 19 17 85 76 145 129 61 54 117 105 126 114 18 19 98 91 379
342 279 249 500 473 500 507 0 6 10 23 23 39 28 36 45 62 58 93 6 14 17 38 25
54 21 41 54 202 54 261 0 62 -32 216 -55 270 -56 130 -96 200 -165 295 -30 41
-62 86 -71 100 -9 14 -51 66 -93 115 -43 50 -125 146 -184 215 -58 69 -113
132 -122 141 -8 9 -80 92 -160 185 -80 92 -181 209 -225 259 -44 49 -102 117
-130 150 -27 33 -62 74 -76 90 -15 17 -64 73 -109 125 -46 52 -96 111 -113
130 -17 19 -53 62 -81 95 -27 33 -86 101 -130 151 -45 50 -146 166 -226 259
-80 92 -159 184 -176 204 -18 20 -76 88 -131 151 -54 63 -112 131 -128 150
-17 19 -51 57 -76 85 -25 27 -68 77 -95 110 -27 33 -63 76 -80 95 -78 88 -135
153 -209 240 -113 132 -305 355 -475 549 -80 92 -169 196 -199 231 -30 36 -59
70 -66 75 -6 6 -33 37 -60 70 -28 33 -64 76 -81 95 -78 88 -135 153 -209 240
-44 51 -100 116 -125 145 -25 28 -81 93 -125 144 -72 84 -205 238 -364 421
-31 35 -74 85 -97 110 -22 25 -53 61 -70 81 -16 20 -69 82 -119 139 -49 57
-135 156 -190 220 -55 64 -140 163 -190 220 -49 56 -103 119 -120 139 -123
151 -342 378 -440 457 -68 54 -158 114 -195 129 -8 4 -34 15 -58 26 -70 31
-214 45 -322 31 -51 -7 -102 -18 -113 -24 -12 -6 -42 -17 -67 -24 -25 -7 -83
-27 -130 -44 -47 -17 -103 -36 -124 -41 -22 -5 -51 -16 -65 -23 -27 -14 -95
-38 -171 -61 -76 -23 -143 -47 -188 -66 -23 -11 -50 -19 -58 -19 -9 0 -30 -7
-47 -14 -48 -23 -178 -66 -196 -66 -9 0 -32 -8 -51 -19 -19 -10 -51 -22 -70
-26 -19 -4 -46 -13 -60 -20 -14 -7 -52 -26 -85 -41 -33 -15 -68 -35 -78 -43
-9 -8 -25 -19 -36 -25 -41 -24 -97 -65 -122 -87 -14 -13 -43 -39 -65 -58 -67
-58 -544 -515 -845 -811 -53 -52 -202 -196 -330 -320 -128 -124 -321 -311
-428 -415 -200 -195 -419 -407 -502 -486 -66 -63 -601 -582 -814 -790 -99 -96
-247 -240 -330 -320 -82 -79 -226 -219 -320 -310 -265 -257 -453 -439 -533
-515 -123 -115 -342 -367 -342 -392 0 -5 -7 -15 -15 -22 -15 -12 -35 -52 -82
-160 -13 -30 -28 -91 -34 -135 -13 -97 -4 -271 17 -328 8 -23 20 -58 26 -77
10 -36 91 -194 111 -219 6 -7 16 -21 22 -31 20 -34 49 -75 60 -85 6 -5 27 -36
48 -67 21 -31 42 -60 47 -63 5 -3 57 -65 116 -138 58 -73 114 -139 123 -147 9
-8 56 -64 105 -125 49 -60 96 -117 105 -125 9 -8 56 -64 105 -125 49 -60 96
-117 105 -125 9 -8 48 -53 87 -100 248 -298 456 -456 663 -509 47 -11 106 -21
132 -21 53 0 197 32 244 54 17 7 57 26 90 40 33 15 67 32 75 37 8 5 25 13 37
18 11 6 83 40 160 77 76 36 170 81 208 99 133 62 270 127 350 165 44 21 143
68 220 104 219 104 297 150 410 240 74 59 304 271 555 512 58 55 137 130 175
166 102 94 446 418 550 518 312 300 467 440 484 439 14 0 44 -32 173 -183 14
-17 68 -80 120 -140 51 -60 117 -139 147 -175 30 -36 85 -100 121 -141 37 -41
114 -131 171 -199 103 -123 162 -192 278 -326 33 -38 98 -115 143 -170 46 -55
119 -140 163 -190 44 -49 112 -128 150 -175 38 -47 74 -89 80 -95 6 -5 47 -53
90 -105 43 -52 109 -129 147 -171 37 -42 68 -83 68 -91 0 -18 -58 -73 -434
-419 -85 -78 -347 -320 -491 -453 -159 -148 -234 -218 -331 -307 -44 -41 -134
-124 -200 -185 -65 -60 -148 -137 -184 -169 -36 -32 -96 -89 -135 -125 -38
-37 -99 -93 -135 -125 -36 -32 -119 -109 -185 -171 -66 -61 -219 -203 -340
-314 -121 -112 -274 -253 -340 -315 -66 -61 -149 -138 -185 -170 -36 -32 -121
-111 -189 -174 -132 -123 -210 -195 -331 -307 -85 -78 -120 -110 -415 -383
-115 -106 -264 -244 -330 -305 -192 -180 -244 -226 -252 -226 -15 0 -28 15
-123 130 -52 63 -107 129 -121 145 -29 32 -171 202 -338 404 -57 69 -106 128
-110 131 -3 3 -49 57 -101 120 -52 63 -107 129 -121 145 -15 17 -64 74 -109
129 -44 54 -86 104 -93 111 -7 6 -59 70 -117 140 -58 71 -112 136 -120 145 -8
8 -57 67 -109 130 -52 63 -99 120 -105 125 -6 6 -54 62 -105 125 -101 124
-101 122 -159 190 -21 25 -83 99 -138 165 -116 140 -230 275 -369 439 -55 65
-152 180 -215 256 -63 76 -174 210 -247 297 -73 87 -162 194 -198 238 -37 44
-109 130 -160 190 -107 127 -222 263 -315 375 -182 218 -251 300 -311 369 -36
42 -102 121 -147 176 -45 55 -126 152 -180 216 -53 64 -137 165 -187 225 -49
59 -130 155 -180 214 -49 59 -130 155 -180 214 -49 60 -121 146 -160 191 -38
46 -118 141 -177 212 -59 70 -162 193 -229 273 -451 535 -609 729 -609 744 0
7 114 125 253 262 1249 1232 1766 1743 2217 2190 289 286 707 700 930 920 222
219 578 570 790 780 212 209 567 560 790 780 222 219 600 593 840 830 239 237
655 649 925 915 1070 1058 1162 1153 1266 1304 66 96 125 236 139 332 36 252
-22 437 -230 731 -43 61 -144 183 -309 372 -79 91 -180 207 -225 259 -44 52
-97 112 -117 135 -103 116 -141 160 -214 246 -44 51 -116 134 -160 184 -44 50
-105 120 -135 156 -30 36 -69 81 -86 100 -39 43 -439 503 -549 630 -44 52
-118 137 -165 190 -83 94 -145 165 -230 265 -24 28 -46 52 -49 55 -3 3 -28 32
-56 65 -51 62 -64 77 -156 180 -30 34 -90 103 -134 155 -44 51 -120 139 -170
195 -49 56 -171 195 -270 310 -99 114 -216 248 -259 298 -43 50 -91 104 -105
121 -14 16 -44 51 -66 76 -105 118 -155 179 -155 189 0 7 7 14 16 18 9 3 57
49 107 102 51 53 144 150 207 216 63 66 155 163 204 215 50 52 151 158 225
236 195 201 540 562 650 679 52 55 149 156 216 225 66 69 219 228 340 354 121
125 222 231 225 236 6 8 259 276 365 385 93 95 288 299 399 416 49 52 137 144
195 204 58 61 185 194 282 295 97 102 200 210 230 240 170 177 262 274 511
535 152 160 316 331 364 381 220 225 474 518 474 548 0 5 7 17 15 26 19 21
105 195 105 213 0 8 9 43 20 77 39 123 18 343 -46 480 -103 219 -176 317 -569
765 -535 610 -627 709 -755 811 -123 98 -188 135 -300 169 -68 21 -105 24
-425 35 -192 6 -438 15 -545 20 -107 5 -307 9 -445 9 -229 0 -254 -1 -300 -20z"/>
<path d="M7872 35315 c-169 -31 -331 -100 -459 -197 -119 -90 -4112 -3886
-4175 -3969 -144 -191 -218 -409 -218 -647 0 -239 70 -456 208 -642 27 -36
474 -512 993 -1059 519 -547 945 -997 947 -1001 1 -4 -419 -406 -933 -895
-527 -500 -960 -918 -991 -958 -294 -375 -300 -914 -16 -1297 59 -80 3826
-4052 3920 -4133 363 -316 895 -350 1296 -83 63 42 569 516 2092 1960 1105
1048 2041 1942 2079 1985 114 130 192 277 237 445 27 103 36 323 18 434 -26
164 -98 335 -195 464 -27 36 -475 514 -995 1062 -520 548 -946 999 -947 1003
0 5 417 404 928 888 511 484 951 907 979 941 99 121 171 265 212 418 27 103
36 323 18 434 -26 164 -98 335 -195 464 -28 36 -917 980 -1977 2097 -1363
1435 -1949 2046 -2000 2084 -103 77 -187 121 -308 161 -168 56 -355 71 -518
41z m403 -5369 c107 -29 208 -75 295 -134 89 -60 88 -59 1506 -1554 l442 -465
-1042 -988 c-1083 -1028 -1115 -1057 -1265 -1120 -310 -130 -674 -81 -930 124
-63 50 -1891 1967 -1891 1982 0 10 2045 1948 2104 1994 100 77 234 138 377
170 84 19 320 14 404 -9z"/>
<path d="M29022 33995 c-169 -31 -331 -100 -459 -197 -119 -90 -4112 -3886
-4175 -3969 -144 -191 -218 -409 -218 -647 0 -239 70 -456 208 -642 27 -36
474 -512 993 -1059 519 -547 945 -997 947 -1001 1 -4 -419 -406 -933 -895
-527 -500 -960 -918 -991 -958 -294 -375 -300 -914 -16 -1297 59 -80 3826
-4052 3920 -4133 363 -316 895 -350 1296 -83 63 42 569 516 2092 1960 1105
1048 2041 1942 2079 1985 114 130 192 277 237 445 27 103 36 323 18 434 -26
164 -98 335 -195 464 -27 36 -475 514 -995 1062 -520 548 -946 999 -947 1003
0 5 417 404 928 888 511 484 951 907 979 941 99 121 171 265 212 418 27 103
36 323 18 434 -26 164 -98 335 -195 464 -28 36 -917 980 -1977 2097 -1363
1435 -1949 2046 -2000 2084 -103 77 -187 121 -308 161 -168 56 -355 71 -518
41z m403 -5369 c107 -29 208 -75 295 -134 89 -60 88 -59 1506 -1554 l442 -465
-1042 -988 c-1083 -1028 -1115 -1057 -1265 -1120 -310 -130 -674 -81 -930 124
-63 50 -1891 1967 -1891 1982 0 10 2045 1948 2104 1994 100 77 234 138 377
170 84 19 320 14 404 -9z"/>
<path d="M31363 11836 c-157 -30 -323 -102 -440 -190 -99 -75 -3490 -2980
-3542 -3035 -123 -129 -220 -300 -266 -471 -33 -118 -44 -307 -25 -431 24
-168 98 -348 194 -476 28 -37 725 -853 1548 -1813 1596 -1862 1541 -1801 1716
-1897 180 -99 348 -138 562 -130 200 7 370 59 528 161 91 58 3586 3050 3643
3118 172 206 259 444 259 708 0 228 -74 454 -204 627 -75 99 -2980 3490 -3035
3542 -130 123 -300 219 -471 267 -118 32 -350 42 -467 20z"/>
<path d="M7693 11396 c-157 -30 -323 -102 -440 -190 -99 -75 -3490 -2980
-3542 -3035 -123 -129 -220 -300 -266 -471 -33 -118 -44 -307 -25 -431 24
-168 98 -348 194 -476 28 -37 725 -853 1548 -1813 1596 -1862 1541 -1801 1716
-1897 180 -99 348 -138 562 -130 200 7 370 59 528 161 91 58 3586 3050 3643
3118 172 206 259 444 259 708 0 228 -74 454 -204 627 -75 99 -2980 3490 -3035
3542 -130 123 -300 219 -471 267 -118 32 -350 42 -467 20z"/>
</g>
</svg>
